<svg width="18" height="14" viewBox="0 0 18 14" fill="none" xmlns="http://www.w3.org/2000/svg">
<path d="M8.08479 13.7947C8.15064 13.7297 8.20289 13.6525 8.23853 13.5675C8.27418 13.4826 8.29253 13.3915 8.29253 13.2995C8.29253 13.2075 8.27418 13.1164 8.23853 13.0315C8.20289 12.9465 8.15064 12.8693 8.08479 12.8043L2.91855 7.69987L16.7917 7.69987C16.9795 7.69987 17.1597 7.62613 17.2925 7.49486C17.4254 7.36359 17.5 7.18556 17.5 6.99992C17.5 6.81428 17.4254 6.63624 17.2925 6.50498C17.1597 6.37371 16.9795 6.29997 16.7917 6.29997L2.91855 6.29997L8.08479 1.19556C8.2177 1.06422 8.29236 0.886084 8.29236 0.700342C8.29236 0.5146 8.2177 0.336465 8.08479 0.205125C7.95188 0.0737855 7.77162 -3.16469e-07 7.58366 -3.09637e-07C7.3957 -3.02804e-07 7.21544 0.0737855 7.08253 0.205125L0.707738 6.5047C0.641882 6.56971 0.589638 6.64691 0.553993 6.73188C0.518347 6.81685 0.5 6.90794 0.5 6.99992C0.5 7.0919 0.518347 7.18299 0.553993 7.26796C0.589638 7.35293 0.641882 7.43013 0.707738 7.49514L7.08253 13.7947C7.14831 13.8598 7.22643 13.9114 7.31242 13.9466C7.39841 13.9819 7.49058 14 7.58366 14C7.67674 14 7.76891 13.9819 7.8549 13.9466C7.94089 13.9114 8.01901 13.8598 8.08479 13.7947Z" fill="#10B981"/>
</svg>
