<svg width="17" height="14" viewBox="0 0 17 14" fill="none" xmlns="http://www.w3.org/2000/svg">
<path d="M9.41521 13.7947C9.34936 13.7297 9.29711 13.6525 9.26147 13.5675C9.22582 13.4826 9.20747 13.3915 9.20747 13.2995C9.20747 13.2075 9.22582 13.1164 9.26147 13.0315C9.29711 12.9465 9.34936 12.8693 9.41521 12.8043L14.5814 7.69987L0.708311 7.69987C0.520454 7.69987 0.340294 7.62613 0.207458 7.49486C0.0746247 7.36359 -3.14091e-07 7.18556 -3.05976e-07 6.99992C-2.97862e-07 6.81428 0.0746247 6.63624 0.207458 6.50498C0.340294 6.37371 0.520454 6.29997 0.708311 6.29997L14.5814 6.29997L9.41521 1.19556C9.2823 1.06422 9.20764 0.886084 9.20764 0.700342C9.20764 0.5146 9.2823 0.336465 9.41521 0.205125C9.54812 0.0737855 9.72838 -3.16469e-07 9.91634 -3.09637e-07C10.1043 -3.02804e-07 10.2846 0.0737855 10.4175 0.205125L16.7923 6.5047C16.8581 6.56971 16.9104 6.64691 16.946 6.73188C16.9817 6.81685 17 6.90794 17 6.99992C17 7.0919 16.9817 7.18299 16.946 7.26796C16.9104 7.35293 16.8581 7.43013 16.7923 7.49514L10.4175 13.7947C10.3517 13.8598 10.2736 13.9114 10.1876 13.9466C10.1016 13.9819 10.0094 14 9.91634 14C9.82326 14 9.73109 13.9819 9.6451 13.9466C9.55911 13.9114 9.48099 13.8598 9.41521 13.7947Z" fill="white"/>
</svg>
