<svg width="8" height="9" viewBox="0 0 8 9" fill="none" xmlns="http://www.w3.org/2000/svg">
<path d="M7.83145 7.52323C7.93876 7.63054 7.99905 7.77607 7.99905 7.92782C7.99905 8.07957 7.93876 8.22511 7.83145 8.33241C7.72414 8.43972 7.5786 8.5 7.42684 8.5C7.27508 8.5 7.12954 8.43972 7.02222 8.33241L4 5.30942L0.976823 8.33146C0.869513 8.43877 0.723969 8.49905 0.57221 8.49905C0.42045 8.49905 0.274907 8.43877 0.167596 8.33146C0.0602863 8.22416 1.59905e-09 8.07862 0 7.92687C-1.59905e-09 7.77512 0.0602863 7.62959 0.167596 7.52228L3.19077 4.50024L0.168548 1.47724C0.0612382 1.36994 0.000952052 1.2244 0.000952054 1.07265C0.000952055 0.920901 0.0612382 0.775366 0.168548 0.668062C0.275859 0.560759 0.421402 0.500476 0.573162 0.500476C0.724921 0.500476 0.870465 0.560759 0.977776 0.668062L4 3.69106L7.02318 0.667586C7.13049 0.560283 7.27603 0.5 7.42779 0.5C7.57955 0.5 7.72509 0.560283 7.8324 0.667586C7.93971 0.77489 8 0.920425 8 1.07218C8 1.22393 7.93971 1.36946 7.8324 1.47677L4.80923 4.50024L7.83145 7.52323Z" fill="#5D6481"/>
</svg>
