<?xml version="1.0" encoding="utf-8"?>
<!-- Generator: Adobe Illustrator 28.3.0, SVG Export Plug-In . SVG Version: 6.00 Build 0)  -->
<svg version="1.1" id="Layer_1" xmlns="http://www.w3.org/2000/svg" xmlns:xlink="http://www.w3.org/1999/xlink" x="0px" y="0px"
	 viewBox="0 0 14 17" style="enable-background:new 0 0 14 17;" xml:space="preserve">
<style type="text/css">
	.st0{fill-rule:evenodd;clip-rule:evenodd;fill:#5D6481;}
</style>
<path class="st0" d="M12.1,4.2L9.9,1.9C9,1,7.9,0.5,6.6,0.5H3.7C1.9,0.5,0.5,2,0.5,3.8v9.3c0,1.8,1.5,3.3,3.2,3.3h6.5
	c1.8,0,3.2-1.5,3.2-3.3V7.5C13.5,6.2,13,5.1,12.1,4.2z M9.4,12.2l-1,1.1c-0.8,0.8-2,0.8-2.7,0l-1-1.1c-0.3-0.3-0.3-0.7,0-0.9
	C4.7,11.1,4.8,11,5,11s0.3,0.1,0.5,0.2l0.8,0.9V9.2c0-0.4,0.3-0.7,0.7-0.7s0.7,0.3,0.7,0.7v2.9l0.8-0.9c0.3-0.3,0.7-0.3,0.9,0
	C9.6,11.5,9.6,11.9,9.4,12.2z M8.3,2.3c0.2,0.1,0.5,0.3,0.7,0.5l2.3,2.3c0.2,0.2,0.4,0.4,0.5,0.7H8.9c-0.4,0-0.7-0.3-0.7-0.7V2.3z"
	/>
</svg>
