<svg width="16" height="18" viewBox="0 0 16 18" fill="none" xmlns="http://www.w3.org/2000/svg">
<path fill-rule="evenodd" clip-rule="evenodd" d="M11.875 0.832031H2.125C1.69402 0.832031 1.2807 1.0006 0.975952 1.30066C0.671206 1.60072 0.5 2.00768 0.5 2.43203V15.638C0.5 16.0816 1.03472 16.3055 1.3508 15.9943L2.50946 14.8535C2.73213 14.6342 3.09909 14.6707 3.27429 14.9294L4.22571 16.3346C4.40091 16.5934 4.76787 16.6298 4.99054 16.4106L6.6492 14.7774C6.84381 14.5858 7.15619 14.5858 7.3508 14.7774L9.00946 16.4106C9.23213 16.6298 9.59909 16.5934 9.77429 16.3346L9.90798 16.1372C9.34264 15.4853 9.36485 14.4961 9.9746 13.8707C10.294 13.5431 10.7206 13.3735 11.1502 13.3735C11.2508 13.3735 11.3512 13.3828 11.4502 13.4012V12.4987C11.4502 11.6025 12.1653 10.832 13.1002 10.832C13.2388 10.832 13.3726 10.849 13.5 10.8808V2.43203C13.5 2.00768 13.3288 1.60072 13.024 1.30066C12.7193 1.0006 12.306 0.832031 11.875 0.832031ZM10.25 12.032H7C6.78451 12.032 6.57785 11.9477 6.42548 11.7977C6.2731 11.6477 6.1875 11.4442 6.1875 11.232C6.1875 11.0199 6.2731 10.8164 6.42548 10.6663C6.57785 10.5163 6.78451 10.432 7 10.432H10.25C10.4655 10.432 10.6722 10.5163 10.8245 10.6663C10.9769 10.8164 11.0625 11.0199 11.0625 11.232C11.0625 11.4442 10.9769 11.6477 10.8245 11.7977C10.6722 11.9477 10.4655 12.032 10.25 12.032ZM10.25 8.83203H7C6.78451 8.83203 6.57785 8.74775 6.42548 8.59772C6.2731 8.44769 6.1875 8.2442 6.1875 8.03203C6.1875 7.81986 6.2731 7.61638 6.42548 7.46635C6.57785 7.31632 6.78451 7.23203 7 7.23203H10.25C10.4655 7.23203 10.6722 7.31632 10.8245 7.46635C10.9769 7.61638 11.0625 7.81986 11.0625 8.03203C11.0625 8.2442 10.9769 8.44769 10.8245 8.59772C10.6722 8.74775 10.4655 8.83203 10.25 8.83203ZM4.5625 12.032H3.75C3.53451 12.032 3.32785 11.9477 3.17548 11.7977C3.0231 11.6477 2.9375 11.4442 2.9375 11.232C2.9375 11.0199 3.0231 10.8164 3.17548 10.6663C3.32785 10.5163 3.53451 10.432 3.75 10.432H4.5625C4.77799 10.432 4.98465 10.5163 5.13702 10.6663C5.2894 10.8164 5.375 11.0199 5.375 11.232C5.375 11.4442 5.2894 11.6477 5.13702 11.7977C4.98465 11.9477 4.77799 12.032 4.5625 12.032ZM4.5625 8.83203H3.75C3.53451 8.83203 3.32785 8.74775 3.17548 8.59772C3.0231 8.44769 2.9375 8.2442 2.9375 8.03203C2.9375 7.81986 3.0231 7.61638 3.17548 7.46635C3.32785 7.31632 3.53451 7.23203 3.75 7.23203H4.5625C4.77799 7.23203 4.98465 7.31632 5.13702 7.46635C5.2894 7.61638 5.375 7.81986 5.375 8.03203C5.375 8.2442 5.2894 8.44769 5.13702 8.59772C4.98465 8.74775 4.77799 8.83203 4.5625 8.83203ZM10.25 4.83203H3.75C3.53451 4.83203 3.32785 4.74775 3.17548 4.59772C3.0231 4.44769 2.9375 4.2442 2.9375 4.03203C2.9375 3.81986 3.0231 3.61638 3.17548 3.46635C3.32785 3.31632 3.53451 3.23203 3.75 3.23203H10.25C10.4655 3.23203 10.6722 3.31632 10.8245 3.46635C10.9769 3.61638 11.0625 3.81986 11.0625 4.03203C11.0625 4.2442 10.9769 4.44769 10.8245 4.59772C10.6722 4.74775 10.4655 4.83203 10.25 4.83203Z" fill="#5D6481"/>
<path d="M10.6906 15.5115C10.4365 15.2508 10.4365 14.8295 10.6906 14.5688C10.8174 14.4388 10.9838 14.3735 11.1502 14.3735C11.3166 14.3735 11.483 14.4388 11.6097 14.5688L12.4502 15.4308V12.4987C12.4502 12.1307 12.7414 11.832 13.1002 11.832C13.459 11.832 13.7502 12.1307 13.7502 12.4987V15.4308L14.5906 14.5688C14.8448 14.3081 15.2556 14.3081 15.5097 14.5688C15.7639 14.8295 15.7639 15.2508 15.5097 15.5115L14.4606 16.5876C13.7105 17.3569 12.4898 17.3569 11.7391 16.5876L10.6906 15.5115Z" fill="#5D6481"/>
</svg>
