<svg width="18" height="20" viewBox="0 0 18 20" fill="none" xmlns="http://www.w3.org/2000/svg">
<path d="M3.33398 6.24935V2.49935C3.33398 2.27834 3.42178 2.06637 3.57806 1.91009C3.73434 1.75381 3.9463 1.66602 4.16732 1.66602H15.834C16.055 1.66602 16.267 1.75381 16.4232 1.91009C16.5795 2.06637 16.6673 2.27834 16.6673 2.49935V17.4993C16.6673 17.7204 16.5795 17.9323 16.4232 18.0886C16.267 18.2449 16.055 18.3327 15.834 18.3327H4.16732C3.9463 18.3327 3.73434 18.2449 3.57806 18.0886C3.42178 17.9323 3.33398 17.7204 3.33398 17.4993V13.7493" stroke="white" stroke-width="1.5" stroke-linecap="round" stroke-linejoin="round"/>
<path d="M12.917 6.25H14.167M11.667 9.58333H14.167M11.667 12.9167H14.167" stroke="white" stroke-width="1.5" stroke-linecap="round"/>
<path d="M4.16699 8.75L6.66699 11.25M6.66699 8.75L4.16699 11.25M1.66699 6.25H9.16699V13.75H1.66699V6.25Z" stroke="white" stroke-width="1.5" stroke-linecap="round" stroke-linejoin="round"/>
</svg>
