<svg width="31" height="30" viewBox="0 0 31 30" fill="none" xmlns="http://www.w3.org/2000/svg">
<rect x="0.75" width="30" height="30" rx="7" fill="#0093C9"/>
<path d="M25.75 10.8333V11.6667H5.75V10.8333C5.75 8.5325 7.61583 6.66667 9.91667 6.66667H10.75V5.83333C10.75 5.37333 11.1233 5 11.5833 5C12.0433 5 12.4167 5.37333 12.4167 5.83333V6.66667H19.0833V5.83333C19.0833 5.37333 19.4567 5 19.9167 5C20.3767 5 20.75 5.37333 20.75 5.83333V6.66667H21.5833C23.8842 6.66667 25.75 8.5325 25.75 10.8333ZM25.75 19.1667C25.75 22.3833 23.1325 25 19.9167 25C16.7008 25 14.0833 22.3833 14.0833 19.1667C14.0833 15.95 16.7008 13.3333 19.9167 13.3333C23.1325 13.3333 25.75 15.95 25.75 19.1667ZM21.5833 19.655L20.75 18.8217V17.5C20.75 17.04 20.3767 16.6667 19.9167 16.6667C19.4567 16.6667 19.0833 17.04 19.0833 17.5V19.1667C19.0833 19.3875 19.1708 19.6 19.3275 19.7558L20.405 20.8333C20.73 21.1583 21.2583 21.1583 21.5833 20.8333C21.9083 20.5083 21.9083 19.98 21.5833 19.655ZM12.4167 19.1667C12.4167 16.8092 13.5067 14.7083 15.2075 13.3333H5.75V20.8333C5.75 23.1342 7.61583 25 9.91667 25H15.2075C13.5067 23.625 12.4167 21.5242 12.4167 19.1667Z" fill="white"/>
</svg>
