<?xml version="1.0" encoding="utf-8"?>
<!-- Generator: Adobe Illustrator 28.3.0, SVG Export Plug-In . SVG Version: 6.00 Build 0)  -->
<svg version="1.1" id="Layer_1" xmlns="http://www.w3.org/2000/svg" xmlns:xlink="http://www.w3.org/1999/xlink" x="0px" y="0px"
	 viewBox="0 0 16 12" style="enable-background:new 0 0 16 12;" xml:space="preserve">
<style type="text/css">
	.st0{fill-rule:evenodd;clip-rule:evenodd;fill:#10B981;}
</style>
<g>
	<path class="st0" d="M8.3,4.3C8,4.2,7.6,4.1,7.2,4.2s-0.7,0.2-1,0.5C6,5,5.8,5.3,5.7,5.6C5.7,6,5.7,6.4,5.9,6.7s0.4,0.6,0.7,0.8
		c0.3,0.2,0.7,0.3,1.1,0.3c0.5,0,1-0.2,1.3-0.5C9.3,7,9.5,6.5,9.5,6c0-0.4-0.1-0.7-0.3-1C9,4.7,8.7,4.4,8.3,4.3z"/>
	<path class="st0" d="M14.8,4.4c-1-1.5-3.2-4.1-7.1-4.1c-3.9,0-6.2,2.6-7.1,4.1C0.2,4.9,0,5.4,0,6c0,0.6,0.2,1.1,0.5,1.6
		c1,1.5,3.2,4.1,7.1,4.1c3.9,0,6.2-2.6,7.1-4.1c0.3-0.5,0.5-1,0.5-1.6C15.2,5.4,15.1,4.9,14.8,4.4z M10.2,7.7
		C9.9,8.2,9.4,8.6,8.8,8.8C8.2,9.1,7.6,9.1,7,9C6.4,8.9,5.8,8.6,5.4,8.2s-0.7-1-0.9-1.6C4.4,6,4.4,5.4,4.7,4.8
		c0.2-0.6,0.6-1,1.2-1.4C6.4,3.1,7,2.9,7.6,2.9c0.8,0,1.6,0.3,2.2,0.9s0.9,1.3,0.9,2.2C10.8,6.6,10.6,7.2,10.2,7.7z"/>
</g>
</svg>
